Coordinates
version=1
nRows=23
nColumns=28
inDegrees=yes

Units are S.I. units (second, meters, Newtons, ...)
Angles are in degrees.

endheader
time	pelvis_tilt	pelvis_list	pelvis_rotation	pelvis_tx	pelvis_ty	pelvis_tz	hip_flexion_r	hip_adduction_r	hip_rotation_r	knee_angle_r	ankle_angle_r	subtalar_angle_r	mtp_angle_r	hip_flexion_l	hip_adduction_l	hip_rotation_l	knee_angle_l	socket_flexion	socket_adduction	socket_rotation	socket_tx	socket_ty	socket_tz	foot_flex	lumbar_extension	lumbar_bending	lumbar_rotation
      0.00000000	     -1.22000274	     -0.23863210	     -7.00193021	     -0.78773133	      0.96456544	      0.28942981	    -22.92963946	     -0.55897745	      6.83547187	     -6.03331802	     -3.46048921	    -16.48712458	     19.77933597	     25.83141517	     -0.59862984	      2.90351686	     -5.75829853	     -4.51062501	     -5.03338283	     -0.50960630	      0.00000000	      0.00196863	      0.00000000	     -1.37349525	     -7.02238914	      0.64637455	      2.55999214
      0.00416667	     -1.24367342	     -0.22443714	     -7.05718262	     -0.78163652	      0.96331760	      0.28905795	    -23.14001788	     -0.64350837	      6.83874023	     -6.19745396	     -3.50729844	    -16.48237175	     19.78139893	     25.86643257	     -0.60627144	      2.87366372	     -6.02182675	     -4.18237945	     -4.96001190	     -0.56467276	      0.00000000	      0.00157735	      0.00000000	     -1.57108514	     -6.95056171	      0.63289142	      2.56524086
      0.00833333	     -1.20635904	     -0.12203038	     -7.20409210	     -0.77529812	      0.96221076	      0.28889621	    -23.27610345	     -0.84831211	      6.71955565	     -6.60516256	     -3.82720503	    -16.46719418	     19.81445758	     25.79944138	     -0.55977607	      2.78714212	     -6.36654737	     -4.12397621	     -4.82430616	     -0.83775598	      0.00000000	      0.00109923	      0.00000000	     -2.40468980	     -6.87212335	      0.44044649	      2.63662432
      0.01250000	     -1.13012584	      0.05508554	     -7.24749240	     -0.76881760	      0.96103694	      0.28849194	    -23.44149998	     -1.12991807	      6.30577106	     -7.01726793	     -4.31526477	    -16.31393721	     21.49629605	     25.97348974	     -0.37332225	      2.28846061	     -7.54511812	     -4.54077329	     -4.78748726	     -0.64432016	      0.00000000	      0.00092354	      0.00000000	     -2.88172741	     -6.90806502	      0.19398842	      2.96929911
      0.01666667	     -1.13867963	      0.10987920	     -7.32125793	     -0.76210273	      0.95978203	      0.28817529	    -23.59030912	     -1.26472274	      6.22590770	     -7.35297562	     -4.51911914	    -16.30672375	     21.54677015	     25.97478528	     -0.35592231	      2.20144147	     -7.85641081	     -4.29976651	     -4.65029082	     -0.77305548	      0.00000000	      0.00036546	      0.00000000	     -3.50133509	     -6.80161154	      0.06801113	      2.98673934
      0.02083333	     -1.13507992	      0.20931173	     -7.39537053	     -0.75524673	      0.95857755	      0.28781620	    -23.70317106	     -1.44473908	      6.10960137	     -7.77900722	     -4.81721193	    -16.28611287	     21.61825988	     25.97459726	     -0.27919114	      2.10408161	     -8.22920359	     -4.09745040	     -4.54257359	     -0.90710025	      0.00000000	     -0.00012492	      0.00000000	     -4.11044104	     -6.72660170	     -0.08648684	      3.03307963
      0.02500000	     -1.12717923	      0.26183577	     -7.37063821	     -0.74830471	      0.95735610	      0.28725119	    -23.89016807	     -1.53211324	      6.10377116	     -8.11133631	     -4.97977891	    -16.26267761	     21.65156756	     25.99881268	     -0.20280593	      2.00473996	     -8.57182166	     -3.75407352	     -4.42575162	     -0.99504629	      0.00000000	     -0.00063224	      0.00000000	     -4.46723457	     -6.63045987	     -0.15022049	      3.05859631
      0.02916667	     -1.18527588	      0.65246284	     -7.41262193	     -0.74111557	      0.95612338	      0.28686922	    -23.76341224	     -2.03946137	      5.31956826	     -8.76177947	     -5.90228596	    -16.13383510	     22.52775743	     26.23860979	      0.17551919	      1.41193750	     -9.57328258	     -4.06811217	     -4.36094857	     -0.87948648	      0.00000000	     -0.00071496	      0.00000000	     -5.23206863	     -6.50256684	     -0.71291480	      3.39922058
      0.03333333	     -1.15617520	      0.67338209	     -7.47794566	     -0.73403224	      0.95504252	      0.28641809	    -23.85455718	     -2.14018088	      5.29974272	     -9.27594951	     -6.16755421	    -16.08172477	     22.70398915	     26.19083043	      0.18459750	      1.32528371	     -9.95749019	     -3.85105505	     -4.32046837	     -0.80628134	      0.00000000	     -0.00147882	      0.00000000	     -5.90213409	     -6.42451022	     -0.79111457	      3.37017308
      0.03750000	     -1.15714593	      0.83168568	     -7.54437363	     -0.72694828	      0.95399085	      0.28600519	    -23.78352706	     -2.39696724	      5.01613932	     -9.97450953	     -6.75611809	    -16.01584685	     23.06179511	     26.24507363	      0.31531198	      0.96956578	    -10.51555960	     -3.73469763	     -4.21896658	     -0.74837540	      0.00000000	     -0.00199825	      0.00000000	     -6.45475588	     -6.39087263	     -1.01717095	      3.38777512
      0.04166667	     -1.15169536	      0.94622124	     -7.51775671	     -0.71980509	      0.95302349	      0.28543341	    -23.78850012	     -2.55207657	      4.87494608	    -10.56673847	     -7.20664325	    -15.95454241	     23.28159076	     26.26509473	      0.45981499	      0.76965990	    -10.96688275	     -3.52562400	     -4.17308715	     -0.63853984	      0.00000000	     -0.00255936	      0.00000000	     -7.03750427	     -6.30927536	     -1.22370268	      3.41024142
      0.04583333	     -1.16038528	      1.14133477	     -7.53704604	     -0.71264583	      0.95211742	      0.28493616	    -23.65350818	     -2.83041081	      4.52754334	    -11.32875234	     -7.91938429	    -15.88242425	     23.59514349	     26.32059240	      0.65598304	      0.39420189	    -11.51604793	     -3.39145237	     -4.11411250	     -0.51692745	      0.00000000	     -0.00303570	      0.00000000	     -7.54877554	     -6.24855459	     -1.51184964	      3.43209509
      0.05000000	     -1.35948144	      1.40955929	     -7.44627060	     -0.70524247	      0.95074159	      0.28439756	    -23.25644034	     -3.20663802	      3.58483760	    -12.13669775	     -8.97070115	    -15.66534026	     30.48514873	     27.24752789	      0.81877027	     -1.88735915	    -14.34914152	     -4.83059773	     -4.42764426	      1.46739220	      0.00000000	     -0.00290445	      0.00000000	     -7.88529630	     -5.85377297	     -1.86431340	      3.41103566
      0.05416667	     -1.34659743	      1.60405984	     -7.43450454	     -0.69804813	      0.95002997	      0.28380408	    -23.10352018	     -3.47632513	      3.31202580	    -12.95200194	     -9.72237411	    -15.59160175	     30.49856811	     27.22091892	      1.03745855	     -2.11021777	    -14.72003514	     -4.54912418	     -4.35996345	      1.48980646	      0.00000000	     -0.00340988	      0.00000000	     -8.24478943	     -5.80797468	     -2.13422111	      3.42517220
      0.05833333	     -1.40862379	      1.88682814	     -7.33706951	     -0.69075553	      0.94931375	      0.28317743	    -22.88143625	     -3.79817501	      2.97823470	    -13.73416941	    -10.56480381	    -15.49672662	     30.70805379	     27.32701442	      1.35084660	     -2.53193654	    -15.24548952	     -4.35917098	     -4.36621400	      1.77439452	      0.00000000	     -0.00371843	      0.00000000	     -8.58593456	     -5.63919986	     -2.54812210	      3.41970827
      0.06250000	     -1.34257198	      1.99790916	     -7.27217447	     -0.68377562	      0.94887243	      0.28246365	    -22.73164559	     -3.94722490	      2.93926608	    -14.62095353	    -11.19836254	    -15.41002113	     30.74204564	     27.25068193	      1.52265224	     -2.61057846	    -15.64469699	     -4.07232178	     -4.33598217	      1.87464350	      0.00000000	     -0.00427610	      0.00000000	     -8.86425199	     -5.67171576	     -2.75079106	      3.39088483
      0.06666667	     -1.55374141	      2.30149781	     -7.20821670	     -0.67651581	      0.94803047	      0.28199210	    -22.15697609	     -4.33211589	      2.36713708	    -15.66784340	    -12.43303488	    -15.30615960	     32.61695870	     27.88477520	      1.70654026	     -4.10188664	    -17.49638003	     -4.80305267	     -4.55508000	      3.00383404	      0.00000000	     -0.00406282	      0.00000000	     -9.02606304	     -5.32627862	     -3.15133750	      3.33417837
      0.07083333	     -1.49394312	      2.46141893	     -7.11681780	     -0.66958712	      0.94776870	      0.28127745	    -21.89682310	     -4.52866278	      2.28288868	    -16.67961493	    -13.27010147	    -15.20555381	     32.60263080	     27.81319363	      1.93286024	     -4.16708186	    -17.87645702	     -4.47743649	     -4.48952386	      3.02585150	      0.00000000	     -0.00451936	      0.00000000	     -9.14341383	     -5.42134238	     -3.40348604	      3.29607170
      0.07500000	     -1.48315747	      2.71049637	     -7.04958103	     -0.66263259	      0.94755280	      0.28058248	    -21.48664818	     -4.85873726	      2.00932158	    -17.80322509	    -14.43111421	    -15.08531321	     32.58298421	     27.80805600	      2.22736516	     -4.35405038	    -18.31749045	     -4.21072844	     -4.41719019	      3.03234881	      0.00000000	     -0.00479291	      0.00000000	     -9.16040738	     -5.44400313	     -3.75915686	      3.24245798
      0.07916667	     -1.53058901	      3.02963243	     -6.93792877	     -0.65549507	      0.94729928	      0.27983574	    -21.02799566	     -5.24981414	      1.68533493	    -18.88835865	    -15.69922159	    -14.97443468	     32.60067089	     27.88250644	      2.60211404	     -4.60910529	    -18.84211623	     -3.99977880	     -4.39312262	      3.10635586	      0.00000000	     -0.00496104	      0.00000000	     -9.12562857	     -5.30087687	     -4.17197205	      3.17172655
      0.08333333	     -1.67410137	      3.39044383	     -6.76716276	     -0.64824838	      0.94699166	      0.27902862	    -20.45519209	     -5.66068414	      1.33996457	    -19.98776613	    -17.08261687	    -14.87767997	     32.70306446	     28.10054669	      3.01841011	     -4.95125593	    -19.53795015	     -3.91623025	     -4.41849491	      3.30800132	      0.00000000	     -0.00496381	      0.00000000	     -9.05282629	     -4.96874926	     -4.63515520	      3.05968851
      0.08750000	     -1.65189214	      3.57725027	     -6.64926538	     -0.64153494	      0.94702956	      0.27828571	    -19.94496313	     -5.89756453	      1.24405046	    -21.23586931	    -18.21208857	    -14.72306074	     32.71912369	     28.13406496	      3.25500589	     -5.10104412	    -20.13120208	     -3.69149207	     -4.34456599	      3.39014359	      0.00000000	     -0.00510859	      0.00000000	     -8.81546417	     -5.09613359	     -4.94038943	      2.97039277
      0.09166667	     -1.94493101	      3.97202423	     -6.41508409	     -0.63428534	      0.94662925	      0.27741439	    -19.13505914	     -6.32037355	      0.89175380	    -22.43326912	    -19.84175363	    -14.64556697	     32.82039160	     28.59469147	      3.69289431	     -5.48813065	    -21.14372128	     -3.83996408	     -4.41189336	      3.66460209	      0.00000000	     -0.00481793	      0.00000000	     -8.64709481	     -4.56661631	     -5.43885118	      2.83139750
